<mxfile host="Electron" modified="2024-04-25T09:38:21.624Z" agent="Mozilla/5.0 (Windows NT 10.0; Win64; x64) AppleWebKit/537.36 (KHTML, like Gecko) draw.io/24.2.5 Chrome/120.0.6099.109 Electron/28.1.0 Safari/537.36" etag="Ym0Z4HXlN1cnSm6fN4Sa" version="24.2.5" type="device">
  <diagram id="KwszhPbAtzyPE-S_vxFn" name="ページ1">
    <mxGraphModel dx="1478" dy="836" grid="1" gridSize="10" guides="1" tooltips="1" connect="1" arrows="1" fold="1" page="1" pageScale="1" pageWidth="1169" pageHeight="827" math="0" shadow="0">
      <root>
        <mxCell id="0" />
        <mxCell id="1" parent="0" />
        <mxCell id="dMe1rdyOqYgHnrBjZ8Le-14" style="edgeStyle=orthogonalEdgeStyle;rounded=0;orthogonalLoop=1;jettySize=auto;html=1;noEdgeStyle=1;orthogonal=1;" parent="1" source="dMe1rdyOqYgHnrBjZ8Le-1" target="dMe1rdyOqYgHnrBjZ8Le-11" edge="1">
          <mxGeometry relative="1" as="geometry">
            <Array as="points">
              <mxPoint x="134" y="225" />
              <mxPoint x="208" y="225" />
            </Array>
          </mxGeometry>
        </mxCell>
        <mxCell id="dMe1rdyOqYgHnrBjZ8Le-15" style="edgeStyle=orthogonalEdgeStyle;rounded=0;orthogonalLoop=1;jettySize=auto;html=1;noEdgeStyle=1;orthogonal=1;" parent="1" source="dMe1rdyOqYgHnrBjZ8Le-1" target="dMe1rdyOqYgHnrBjZ8Le-10" edge="1">
          <mxGeometry relative="1" as="geometry">
            <Array as="points">
              <mxPoint x="132" y="201.66666666666666" />
              <mxPoint x="208" y="115" />
            </Array>
          </mxGeometry>
        </mxCell>
        <mxCell id="dMe1rdyOqYgHnrBjZ8Le-17" style="edgeStyle=orthogonalEdgeStyle;rounded=0;orthogonalLoop=1;jettySize=auto;html=1;noEdgeStyle=1;orthogonal=1;" parent="1" source="dMe1rdyOqYgHnrBjZ8Le-1" target="dMe1rdyOqYgHnrBjZ8Le-2" edge="1">
          <mxGeometry relative="1" as="geometry">
            <Array as="points">
              <mxPoint x="132" y="248.33333333333334" />
              <mxPoint x="170" y="405" />
              <mxPoint x="390" y="405" />
              <mxPoint x="426" y="320" />
            </Array>
          </mxGeometry>
        </mxCell>
        <mxCell id="dMe1rdyOqYgHnrBjZ8Le-1" value="bookshelf:list" style="rounded=0;whiteSpace=wrap;html=1;" parent="1" vertex="1">
          <mxGeometry y="185" width="120" height="80" as="geometry" />
        </mxCell>
        <mxCell id="dMe1rdyOqYgHnrBjZ8Le-18" style="edgeStyle=orthogonalEdgeStyle;rounded=0;orthogonalLoop=1;jettySize=auto;html=1;noEdgeStyle=1;orthogonal=1;" parent="1" source="dMe1rdyOqYgHnrBjZ8Le-2" target="dMe1rdyOqYgHnrBjZ8Le-3" edge="1">
          <mxGeometry relative="1" as="geometry">
            <Array as="points">
              <mxPoint x="572" y="293.75" />
              <mxPoint x="610" y="185" />
              <mxPoint x="830" y="185" />
              <mxPoint x="866" y="219.69375" />
            </Array>
          </mxGeometry>
        </mxCell>
        <mxCell id="dMe1rdyOqYgHnrBjZ8Le-19" style="edgeStyle=orthogonalEdgeStyle;rounded=0;orthogonalLoop=1;jettySize=auto;html=1;entryDx=0;entryDy=0;noEdgeStyle=1;orthogonal=1;" parent="1" source="dMe1rdyOqYgHnrBjZ8Le-2" target="dMe1rdyOqYgHnrBjZ8Le-4" edge="1">
          <mxGeometry relative="1" as="geometry">
            <Array as="points">
              <mxPoint x="574" y="328.75" />
              <mxPoint x="646" y="260" />
            </Array>
          </mxGeometry>
        </mxCell>
        <mxCell id="dMe1rdyOqYgHnrBjZ8Le-35" style="edgeStyle=orthogonalEdgeStyle;rounded=0;orthogonalLoop=1;jettySize=auto;html=1;noEdgeStyle=1;orthogonal=1;" parent="1" source="dMe1rdyOqYgHnrBjZ8Le-2" target="dMe1rdyOqYgHnrBjZ8Le-32" edge="1">
          <mxGeometry relative="1" as="geometry">
            <Array as="points">
              <mxPoint x="574" y="346.25" />
              <mxPoint x="648" y="346.6666666666667" />
            </Array>
          </mxGeometry>
        </mxCell>
        <mxCell id="dMe1rdyOqYgHnrBjZ8Le-2" value="folder" style="rounded=0;whiteSpace=wrap;html=1;" parent="1" vertex="1">
          <mxGeometry x="440" y="280" width="120" height="80" as="geometry" />
        </mxCell>
        <mxCell id="dMe1rdyOqYgHnrBjZ8Le-38" style="edgeStyle=orthogonalEdgeStyle;rounded=0;orthogonalLoop=1;jettySize=auto;html=1;noEdgeStyle=1;orthogonal=1;" parent="1" source="dMe1rdyOqYgHnrBjZ8Le-3" target="dMe1rdyOqYgHnrBjZ8Le-37" edge="1">
          <mxGeometry relative="1" as="geometry">
            <Array as="points">
              <mxPoint x="1012" y="233.69375000000002" />
              <mxPoint x="1088" y="278.46875" />
            </Array>
          </mxGeometry>
        </mxCell>
        <mxCell id="1vpYKi_sP88Q3CMu22II-1" style="edgeStyle=orthogonalEdgeStyle;rounded=0;orthogonalLoop=1;jettySize=auto;html=1;noEdgeStyle=1;orthogonal=1;" parent="1" source="dMe1rdyOqYgHnrBjZ8Le-3" target="dMe1rdyOqYgHnrBjZ8Le-2" edge="1">
          <mxGeometry relative="1" as="geometry">
            <Array as="points">
              <mxPoint x="866" y="233.69375" />
              <mxPoint x="830" y="195" />
              <mxPoint x="610" y="195" />
              <mxPoint x="572" y="311.25" />
            </Array>
          </mxGeometry>
        </mxCell>
        <mxCell id="dMe1rdyOqYgHnrBjZ8Le-3" value="file:info" style="rounded=0;whiteSpace=wrap;html=1;" parent="1" vertex="1">
          <mxGeometry x="880" y="193.69375" width="120" height="80" as="geometry" />
        </mxCell>
        <mxCell id="dMe1rdyOqYgHnrBjZ8Le-20" style="edgeStyle=orthogonalEdgeStyle;rounded=0;orthogonalLoop=1;jettySize=auto;html=1;noEdgeStyle=1;orthogonal=1;" parent="1" source="dMe1rdyOqYgHnrBjZ8Le-4" target="dMe1rdyOqYgHnrBjZ8Le-3" edge="1">
          <mxGeometry relative="1" as="geometry">
            <Array as="points">
              <mxPoint x="792" y="260" />
              <mxPoint x="864" y="247.69375" />
            </Array>
          </mxGeometry>
        </mxCell>
        <mxCell id="dMe1rdyOqYgHnrBjZ8Le-4" value="book" style="rounded=0;whiteSpace=wrap;html=1;" parent="1" vertex="1">
          <mxGeometry x="660" y="220" width="120" height="80" as="geometry" />
        </mxCell>
        <mxCell id="dMe1rdyOqYgHnrBjZ8Le-13" style="edgeStyle=orthogonalEdgeStyle;rounded=0;orthogonalLoop=1;jettySize=auto;html=1;noEdgeStyle=1;orthogonal=1;" parent="1" source="dMe1rdyOqYgHnrBjZ8Le-10" target="dMe1rdyOqYgHnrBjZ8Le-12" edge="1">
          <mxGeometry relative="1" as="geometry">
            <Array as="points">
              <mxPoint x="352" y="115" />
              <mxPoint x="428" y="22.5" />
            </Array>
          </mxGeometry>
        </mxCell>
        <mxCell id="dMe1rdyOqYgHnrBjZ8Le-10" value="bookshelf:add" style="rounded=0;whiteSpace=wrap;html=1;" parent="1" vertex="1">
          <mxGeometry x="220" y="75" width="120" height="80" as="geometry" />
        </mxCell>
        <mxCell id="dMe1rdyOqYgHnrBjZ8Le-16" style="edgeStyle=orthogonalEdgeStyle;rounded=0;orthogonalLoop=1;jettySize=auto;html=1;noEdgeStyle=1;orthogonal=1;" parent="1" source="dMe1rdyOqYgHnrBjZ8Le-11" target="dMe1rdyOqYgHnrBjZ8Le-12" edge="1">
          <mxGeometry relative="1" as="geometry">
            <Array as="points">
              <mxPoint x="352" y="225" />
              <mxPoint x="428" y="57.5" />
            </Array>
          </mxGeometry>
        </mxCell>
        <mxCell id="dMe1rdyOqYgHnrBjZ8Le-11" value="bookshelf:info" style="rounded=0;whiteSpace=wrap;html=1;" parent="1" vertex="1">
          <mxGeometry x="220" y="185" width="120" height="80" as="geometry" />
        </mxCell>
        <mxCell id="dMe1rdyOqYgHnrBjZ8Le-12" value="bookshelf:manage" style="rounded=0;whiteSpace=wrap;html=1;" parent="1" vertex="1">
          <mxGeometry x="440" width="120" height="80" as="geometry" />
        </mxCell>
        <mxCell id="dMe1rdyOqYgHnrBjZ8Le-23" style="edgeStyle=orthogonalEdgeStyle;rounded=0;orthogonalLoop=1;jettySize=auto;html=1;noEdgeStyle=1;orthogonal=1;" parent="1" source="dMe1rdyOqYgHnrBjZ8Le-21" target="dMe1rdyOqYgHnrBjZ8Le-22" edge="1">
          <mxGeometry relative="1" as="geometry">
            <Array as="points">
              <mxPoint x="132" y="422.5" />
              <mxPoint x="208" y="335" />
            </Array>
          </mxGeometry>
        </mxCell>
        <mxCell id="dMe1rdyOqYgHnrBjZ8Le-28" style="edgeStyle=orthogonalEdgeStyle;rounded=0;orthogonalLoop=1;jettySize=auto;html=1;noEdgeStyle=1;orthogonal=1;" parent="1" source="dMe1rdyOqYgHnrBjZ8Le-21" target="dMe1rdyOqYgHnrBjZ8Le-27" edge="1">
          <mxGeometry relative="1" as="geometry">
            <Array as="points">
              <mxPoint x="132" y="457.5" />
              <mxPoint x="170" y="620" />
              <mxPoint x="390" y="620" />
              <mxPoint x="390" y="620" />
              <mxPoint x="610" y="620" />
              <mxPoint x="610" y="620" />
              <mxPoint x="830" y="620" />
              <mxPoint x="830" y="620" />
              <mxPoint x="1050" y="620" />
              <mxPoint x="1050" y="620" />
              <mxPoint x="1270" y="620" />
              <mxPoint x="1308" y="339.7375" />
            </Array>
          </mxGeometry>
        </mxCell>
        <mxCell id="dMe1rdyOqYgHnrBjZ8Le-21" value="favorite:list" style="rounded=0;whiteSpace=wrap;html=1;" parent="1" vertex="1">
          <mxGeometry y="400" width="120" height="80" as="geometry" />
        </mxCell>
        <mxCell id="dMe1rdyOqYgHnrBjZ8Le-24" style="edgeStyle=orthogonalEdgeStyle;rounded=0;orthogonalLoop=1;jettySize=auto;html=1;noEdgeStyle=1;orthogonal=1;" parent="1" source="dMe1rdyOqYgHnrBjZ8Le-22" target="dMe1rdyOqYgHnrBjZ8Le-3" edge="1">
          <mxGeometry relative="1" as="geometry">
            <Array as="points">
              <mxPoint x="352" y="305.8333333333333" />
              <mxPoint x="390" y="110" />
              <mxPoint x="610" y="110" />
              <mxPoint x="610" y="110" />
              <mxPoint x="830" y="110" />
              <mxPoint x="868" y="205.69375" />
            </Array>
          </mxGeometry>
        </mxCell>
        <mxCell id="dMe1rdyOqYgHnrBjZ8Le-25" style="edgeStyle=orthogonalEdgeStyle;rounded=0;orthogonalLoop=1;jettySize=auto;html=1;noEdgeStyle=1;orthogonal=1;" parent="1" source="dMe1rdyOqYgHnrBjZ8Le-22" target="dMe1rdyOqYgHnrBjZ8Le-2" edge="1">
          <mxGeometry relative="1" as="geometry">
            <Array as="points">
              <mxPoint x="356" y="340.83333333333337" />
              <mxPoint x="428" y="296.6666666666667" />
            </Array>
          </mxGeometry>
        </mxCell>
        <mxCell id="dMe1rdyOqYgHnrBjZ8Le-26" style="edgeStyle=orthogonalEdgeStyle;rounded=0;orthogonalLoop=1;jettySize=auto;html=1;noEdgeStyle=1;orthogonal=1;" parent="1" source="dMe1rdyOqYgHnrBjZ8Le-22" target="dMe1rdyOqYgHnrBjZ8Le-4" edge="1">
          <mxGeometry relative="1" as="geometry">
            <Array as="points">
              <mxPoint x="354" y="317.5" />
              <mxPoint x="390" y="140" />
              <mxPoint x="610" y="140" />
              <mxPoint x="648" y="236.66666666666666" />
            </Array>
          </mxGeometry>
        </mxCell>
        <mxCell id="dMe1rdyOqYgHnrBjZ8Le-30" style="edgeStyle=orthogonalEdgeStyle;rounded=0;orthogonalLoop=1;jettySize=auto;html=1;noEdgeStyle=1;orthogonal=1;" parent="1" source="dMe1rdyOqYgHnrBjZ8Le-22" target="dMe1rdyOqYgHnrBjZ8Le-29" edge="1">
          <mxGeometry relative="1" as="geometry">
            <Array as="points">
              <mxPoint x="356" y="329.1666666666667" />
              <mxPoint x="428" y="210" />
            </Array>
          </mxGeometry>
        </mxCell>
        <mxCell id="dMe1rdyOqYgHnrBjZ8Le-33" style="edgeStyle=orthogonalEdgeStyle;rounded=0;orthogonalLoop=1;jettySize=auto;html=1;noEdgeStyle=1;orthogonal=1;" parent="1" source="dMe1rdyOqYgHnrBjZ8Le-22" target="dMe1rdyOqYgHnrBjZ8Le-32" edge="1">
          <mxGeometry relative="1" as="geometry">
            <Array as="points">
              <mxPoint x="352" y="364.16666666666674" />
              <mxPoint x="390" y="500" />
              <mxPoint x="610" y="500" />
              <mxPoint x="646" y="370" />
            </Array>
          </mxGeometry>
        </mxCell>
        <mxCell id="dMe1rdyOqYgHnrBjZ8Le-34" style="edgeStyle=orthogonalEdgeStyle;rounded=0;orthogonalLoop=1;jettySize=auto;html=1;noEdgeStyle=1;orthogonal=1;" parent="1" source="dMe1rdyOqYgHnrBjZ8Le-22" target="dMe1rdyOqYgHnrBjZ8Le-31" edge="1">
          <mxGeometry relative="1" as="geometry">
            <Array as="points">
              <mxPoint x="354" y="352.50000000000006" />
              <mxPoint x="428" y="430" />
            </Array>
          </mxGeometry>
        </mxCell>
        <mxCell id="3SBP9_E_GNYUncjPfA7U-1" style="edgeStyle=orthogonalEdgeStyle;rounded=0;orthogonalLoop=1;jettySize=auto;html=1;" edge="1" parent="1" source="dMe1rdyOqYgHnrBjZ8Le-22">
          <mxGeometry relative="1" as="geometry">
            <mxPoint x="360" y="335" as="targetPoint" />
          </mxGeometry>
        </mxCell>
        <mxCell id="dMe1rdyOqYgHnrBjZ8Le-22" value="favorite" style="rounded=0;whiteSpace=wrap;html=1;" parent="1" vertex="1">
          <mxGeometry x="220" y="295" width="120" height="80" as="geometry" />
        </mxCell>
        <mxCell id="dMe1rdyOqYgHnrBjZ8Le-27" value="お気に入り作成" style="rounded=0;whiteSpace=wrap;html=1;" parent="1" vertex="1">
          <mxGeometry x="1320" y="282.2375" width="120" height="80" as="geometry" />
        </mxCell>
        <mxCell id="dMe1rdyOqYgHnrBjZ8Le-29" value="favorite:edit" style="rounded=0;whiteSpace=wrap;html=1;" parent="1" vertex="1">
          <mxGeometry x="440" y="170" width="120" height="80" as="geometry" />
        </mxCell>
        <mxCell id="dMe1rdyOqYgHnrBjZ8Le-31" value="favorite:delete" style="rounded=0;whiteSpace=wrap;html=1;" parent="1" vertex="1">
          <mxGeometry x="440" y="390" width="120" height="80" as="geometry" />
        </mxCell>
        <mxCell id="dMe1rdyOqYgHnrBjZ8Le-32" value="folder:display" style="rounded=0;whiteSpace=wrap;html=1;" parent="1" vertex="1">
          <mxGeometry x="660" y="330" width="120" height="80" as="geometry" />
        </mxCell>
        <mxCell id="dMe1rdyOqYgHnrBjZ8Le-39" style="edgeStyle=orthogonalEdgeStyle;rounded=0;orthogonalLoop=1;jettySize=auto;html=1;noEdgeStyle=1;orthogonal=1;" parent="1" source="dMe1rdyOqYgHnrBjZ8Le-37" target="dMe1rdyOqYgHnrBjZ8Le-27" edge="1">
          <mxGeometry relative="1" as="geometry">
            <Array as="points">
              <mxPoint x="1232" y="278.46875" />
              <mxPoint x="1308" y="304.7375" />
            </Array>
          </mxGeometry>
        </mxCell>
        <mxCell id="dMe1rdyOqYgHnrBjZ8Le-37" value="お気に入りに追加" style="rounded=0;whiteSpace=wrap;html=1;" parent="1" vertex="1">
          <mxGeometry x="1100" y="238.46875" width="120" height="80" as="geometry" />
        </mxCell>
        <mxCell id="1vpYKi_sP88Q3CMu22II-3" style="edgeStyle=orthogonalEdgeStyle;rounded=0;orthogonalLoop=1;jettySize=auto;html=1;noEdgeStyle=1;orthogonal=1;" parent="1" source="1vpYKi_sP88Q3CMu22II-2" target="dMe1rdyOqYgHnrBjZ8Le-2" edge="1">
          <mxGeometry relative="1" as="geometry">
            <Array as="points">
              <mxPoint x="352" y="448.75" />
              <mxPoint x="428" y="343.3333333333333" />
            </Array>
          </mxGeometry>
        </mxCell>
        <mxCell id="1vpYKi_sP88Q3CMu22II-4" style="edgeStyle=orthogonalEdgeStyle;rounded=0;orthogonalLoop=1;jettySize=auto;html=1;noEdgeStyle=1;orthogonal=1;" parent="1" source="1vpYKi_sP88Q3CMu22II-2" target="dMe1rdyOqYgHnrBjZ8Le-3" edge="1">
          <mxGeometry relative="1" as="geometry">
            <Array as="points">
              <mxPoint x="352" y="501.25" />
              <mxPoint x="390" y="590" />
              <mxPoint x="610" y="590" />
              <mxPoint x="610" y="590" />
              <mxPoint x="830" y="590" />
              <mxPoint x="866" y="261.69375" />
            </Array>
          </mxGeometry>
        </mxCell>
        <mxCell id="1vpYKi_sP88Q3CMu22II-6" style="edgeStyle=orthogonalEdgeStyle;rounded=0;orthogonalLoop=1;jettySize=auto;html=1;noEdgeStyle=1;orthogonal=1;" parent="1" source="1vpYKi_sP88Q3CMu22II-2" target="dMe1rdyOqYgHnrBjZ8Le-32" edge="1">
          <mxGeometry relative="1" as="geometry">
            <Array as="points">
              <mxPoint x="354" y="483.75" />
              <mxPoint x="390" y="560" />
              <mxPoint x="610" y="560" />
              <mxPoint x="648" y="393.3333333333333" />
            </Array>
          </mxGeometry>
        </mxCell>
        <mxCell id="1vpYKi_sP88Q3CMu22II-7" style="edgeStyle=orthogonalEdgeStyle;rounded=0;orthogonalLoop=1;jettySize=auto;html=1;noEdgeStyle=1;orthogonal=1;" parent="1" source="1vpYKi_sP88Q3CMu22II-2" target="dMe1rdyOqYgHnrBjZ8Le-4" edge="1">
          <mxGeometry relative="1" as="geometry">
            <Array as="points">
              <mxPoint x="354" y="466.25" />
              <mxPoint x="390" y="530" />
              <mxPoint x="610" y="530" />
              <mxPoint x="648" y="283.3333333333333" />
            </Array>
          </mxGeometry>
        </mxCell>
        <mxCell id="1vpYKi_sP88Q3CMu22II-2" value="readlater" style="rounded=0;whiteSpace=wrap;html=1;" parent="1" vertex="1">
          <mxGeometry x="220" y="435" width="120" height="80" as="geometry" />
        </mxCell>
        <mxCell id="1vpYKi_sP88Q3CMu22II-5" style="edgeStyle=orthogonalEdgeStyle;rounded=0;orthogonalLoop=1;jettySize=auto;html=1;" parent="1" source="dMe1rdyOqYgHnrBjZ8Le-2" target="dMe1rdyOqYgHnrBjZ8Le-2" edge="1">
          <mxGeometry relative="1" as="geometry" />
        </mxCell>
      </root>
    </mxGraphModel>
  </diagram>
</mxfile>
